<?xml version="1.0" standalone="no"?>
<!DOCTYPE svg PUBLIC "-//W3C//DTD SVG 20010904//EN"
 "http://www.w3.org/TR/2001/REC-SVG-20010904/DTD/svg10.dtd">
<svg version="1.0" xmlns="http://www.w3.org/2000/svg"
 width="460.000000pt" height="454.000000pt" viewBox="0 0 460.000000 454.000000"
 preserveAspectRatio="xMidYMid meet">

<g transform="translate(0.000000,454.000000) scale(0.100000,-0.100000)"
fill="#000000" stroke="none">
<path d="M200 4530 c0 -4 72 -222 160 -484 l161 -475 -259 -506 c-143 -278
-257 -505 -253 -505 3 0 123 31 266 69 143 39 260 69 261 68 1 -1 -94 -224
-213 -495 -118 -272 -213 -496 -211 -498 3 -2 150 88 329 200 178 112 327 202
330 200 3 -1 304 -474 669 -1049 510 -803 666 -1042 672 -1028 4 10 84 388
177 841 93 453 171 826 174 828 3 3 407 66 898 140 490 73 894 136 897 139 13
13 339 871 334 876 -4 3 -950 367 -2102 809 -1152 441 -2139 820 -2192 841
-54 20 -98 34 -98 29z m2300 -1225 c261 -103 478 -191 483 -194 4 -4 -88 -33
-205 -64 -117 -31 -270 -72 -339 -91 l-126 -33 -149 280 c-160 301 -161 302
-148 295 5 -3 223 -90 484 -193z"/>
</g>
</svg>
